<svg width="420" height="100" viewBox="0 0 420 100" class="css-1j8o68f" xmlns="http://www.w3.org/2000/svg">
  <defs id="SvgjsDefs9709">
  </defs>
  <g id="SvgjsG1872" featurekey="rootContainer" transform="matrix(1,0,0,1,0,0)" fill="#262833">
    <rect width="100%" height="100%" rx="10" ry="10">
    </rect>
  </g>
  <g id="SvgjsG9710" featurekey="symbolFeature-0" transform="matrix(1.434308648109436,0,0,1.434308648109436,-20,-26)" fill="#bcfd39">
    <title>Cryptocurrency</title>
    <path d="M50.2,42.4A10.44,10.44,0,1,0,60.64,52.84,10.45,10.45,0,0,0,50.2,42.4Zm0,18.39a7.94,7.94,0,1,1,7.94-7.94A8,8,0,0,1,50.2,60.79ZM77.8,45.93H73.62a1.25,1.25,0,0,0-.88.37l-5.29,5.29H64.39a14.18,14.18,0,0,0-3.27-7.9l3.5-3.5a1.25,1.25,0,0,0-1.77-1.77l-3.5,3.5a14.18,14.18,0,0,0-7.63-3.25V35.6L57,30.3a1.25,1.25,0,0,0,.37-.88V25.25a1.25,1.25,0,0,0-2.5,0V28.9L49.58,34.2a1.25,1.25,0,0,0-.37.88v3.56a14.26,14.26,0,0,0-13.2,13H32.62a1.25,1.25,0,0,0-.88.37l-5.29,5.29H22.2a1.25,1.25,0,0,0,0,2.5H27a1.25,1.25,0,0,0,.88-.37l5.29-5.29H36A14.18,14.18,0,0,0,39.29,62l-3.62,3.62a1.25,1.25,0,1,0,1.77,1.77l3.62-3.62A14.18,14.18,0,0,0,49.21,67v3l-5.29,5.29a1.25,1.25,0,0,0-.37.88v4.17a1.25,1.25,0,0,0,2.5,0V76.79l5.29-5.29a1.25,1.25,0,0,0,.37-.88V67A14.27,14.27,0,0,0,64.39,54.09H68a1.25,1.25,0,0,0,.88-.37l5.29-5.29H77.8a1.25,1.25,0,0,0,0-2.5ZM50.2,64.59A11.75,11.75,0,1,1,62,52.84,11.76,11.76,0,0,1,50.2,64.59ZM65.53,44.33a1.23,1.23,0,1,1-1.23,1.23A1.23,1.23,0,0,1,65.53,44.33Zm2.9,1.23a1.23,1.23,0,1,1,1.23,1.23A1.23,1.23,0,0,1,68.43,45.56Zm-2.76,17a1.23,1.23,0,1,1-1.23-1.23A1.23,1.23,0,0,1,65.67,62.54Zm0,4.14a1.23,1.23,0,1,1-1.23-1.23A1.23,1.23,0,0,1,65.67,66.68ZM36,37.08a1.23,1.23,0,1,1,1.23,1.23A1.23,1.23,0,0,1,36,37.08Zm0,4.14a1.23,1.23,0,1,1,1.23,1.23A1.23,1.23,0,0,1,36,41.22Zm-5.9,22.05A1.23,1.23,0,1,1,28.83,62,1.23,1.23,0,0,1,30.06,63.27Zm4.14,0A1.23,1.23,0,1,1,33,62,1.23,1.23,0,0,1,34.2,63.27Z">
    </path>
  </g>
  <g id="SvgjsG9711" featurekey="textGroupContainer" transform="matrix(1,0,0,1,103,4)" fill="#fef1b3">
    <rect width="313" height="92" rx="8">
    </rect>
  </g>
  <g id="SvgjsG9712" featurekey="nameFeature-0" transform="matrix(1.177024483680725,0,0,1.177024483680725,123,8)" fill="#000000">
    <path d="M13.08 40 l-9.84 0 l0 -28.8 l9.84 0 c3.2 0 6.2 0.2 8.88 2.16 c3.8 2.76 4.8 8.36 4.8 12.2 c0 3.8 -0.84 8.04 -3.48 10.92 c-2.64 2.96 -6.4 3.52 -10.2 3.52 z M5.96 13.52 l0 24.16 l6.52 0 c2.44 0 4.56 -0.16 6.76 -1.32 c3.84 -1.96 4.8 -6.88 4.8 -10.8 c0 -4.2 -0.92 -8.8 -4.96 -10.96 c-1.72 -0.92 -4.2 -1.08 -6.6 -1.08 l-6.52 0 z M33.24 28.2 l13.52 0 c0 -4.04 -2.24 -7.32 -6.56 -7.32 c-4.24 0 -6.48 3.4 -6.96 7.32 z M49.32 30.2 l-16.08 0 c-0.04 4.48 2.36 8.2 6.96 8.2 c3.12 0 5.56 -1.72 6.28 -4.76 l2.68 0 c-1.2 3.92 -3.68 6.92 -8.96 6.92 c-6.64 0 -9.52 -4.72 -9.52 -10.84 c0 -6.04 3.6 -11 9.52 -11 c5.68 0 9.16 4.04 9.12 11.48 z M67.48 40 l-6.28 -8.96 l-6.44 8.96 l-2.92 0 l7.96 -10.72 l-7.32 -10 l2.96 0 l5.72 8.24 l5.88 -8.24 l3.04 0 l-7.48 10 l7.76 10.72 l-2.88 0 z M76.96000000000001 40 l-2.72 0 l0 -28.8 l10.52 0 c7.48 0 9.4 3.72 9.4 8.04 c0 6.44 -5.72 8.04 -11.04 8.04 l-6.16 0 l0 12.72 z M76.96000000000001 24.96 l6.24 0 c5.08 0 8.24 -1.04 8.24 -5.92 c0 -3.6 -2.32 -5.52 -7.44 -5.52 l-7.04 0 l0 11.44 z M112 32.36 l0 -3.24 c-2.04 0.84 -4.12 1 -6.2 1.16 c-3.64 0.28 -5.84 1.6 -5.84 4.4 c0 2.52 2.2 3.72 4.48 3.72 c3.8 0 7.56 -1.84 7.56 -6.04 z M104.64 28.36 l3.32 -0.44 c0.88 -0.08 2.36 -0.32 3.16 -0.68 s0.88 -1.44 0.88 -2.16 c0 -2.44 -1.44 -4.2 -5.16 -4.2 c-3.32 0 -5.6 1.08 -6.04 4.68 l-2.44 0 c0.36 -4.88 4 -6.84 8.52 -6.84 c4.2 0 7.52 1.64 7.52 6.44 l0 11.28 c0 1.88 0.48 2.32 2.52 1.6 l0 1.88 c-0.36 0.12 -1.2 0.4 -1.88 0.4 c-0.4 0 -0.72 -0.04 -1.08 -0.12 c-1.6 -0.24 -1.88 -1.64 -1.92 -3.08 c-2 2.24 -4.72 3.44 -7.72 3.44 c-3.64 0 -6.92 -1.96 -6.92 -5.96 c0 -3.48 2.4 -5.6 7.24 -6.24 z M123.44000000000001 40 l-2.4 0 l0 -20.72 l2.4 0 l0 20.72 z M123.56000000000002 14.760000000000002 l-2.64 0 l0 -3.56 l2.64 0 l0 3.56 z M132.08 29.84 l0 10.16 l-2.4 0 l0 -20.72 l2.4 0 l0 3.88 l0.08 0 c1.32 -3.32 3.28 -4.44 6.76 -4.44 l0 2.6 c-5.4 -0.12 -6.84 3.88 -6.84 8.52 z M141.84 33.519999999999996 l2.44 0 c0.76 3.56 2.6 4.88 6.2 4.88 c3.48 0 5.12 -1.84 5.12 -3.84 c0 -6 -13.28 -1.76 -13.28 -9.92 c0 -3.44 2.68 -5.92 7.28 -5.92 c4.48 0 7.4 1.84 8 6.52 l-2.44 0 c-0.44 -3.2 -2.6 -4.36 -5.6 -4.36 c-3.04 0 -4.68 1.44 -4.68 3.56 c0 5.64 13.28 2.12 13.28 10.08 c0 3.96 -3.56 6.04 -8.44 6.04 s-7.68 -3.12 -7.88 -7.04 z M167 40 l-2.92 0 l0 -3.52 l2.92 0 l0 3.52 z M187.48000000000002 40 l-6.28 -8.96 l-6.44 8.96 l-2.92 0 l7.96 -10.72 l-7.32 -10 l2.96 0 l5.72 8.24 l5.88 -8.24 l3.04 0 l-7.48 10 l7.76 10.72 l-2.88 0 z M193.84 47.88 l0 -2.24 c0.64 0.12 1.32 0.24 2 0.24 c2.72 0 3.12 -3.92 4.04 -5.72 l-8.04 -20.88 l2.68 0 l6.64 17.8 l6.64 -17.8 l2.6 0 l-7.72 20.44 c-1.96 5.2 -3.24 8.44 -6.56 8.44 c-0.84 0 -1.64 -0.12 -2.28 -0.28 z M229.8 40 l-17.36 0 l0 -2.12 l13.76 -16.6 l-12.84 0 l0 -2 l15.92 0 l0 2.12 l-13.76 16.6 l14.28 0 l0 2 z">
    </path>
  </g>
  <g id="SvgjsG9713" featurekey="sloganFeature-0" transform="matrix(0.7119081020355225,0,0,0.7119081020355225,126,70)" fill="#000000">
    <path d="M1.06 12.82 c-0.02 -4.2 2.34 -7.6 6.64 -7.6 c4.5 0 6.78 3.38 6.78 7.6 c0 4.14 -2.28 7.56 -6.72 7.56 s-6.7 -3.42 -6.7 -7.56 z M7.78 19.22 c3.74 0 5.34 -3.04 5.34 -6.4 c0 -4 -2.06 -6.44 -5.38 -6.44 c-3.7 0 -5.32 3.1 -5.32 6.44 c0 3.4 1.6 6.4 5.36 6.4 z M26.82 20 l-8.28 -12.56 l-0.04 0 l0 12.56 l-1.36 0 l0 -14.4 l1.54 0 l8.32 12.58 l0.04 0 l0 -12.58 l1.36 0 l0 14.4 l-1.58 0 z M43.24 9.78 l-1.4 0 c-0.56 -2.46 -2.08 -3.4 -4.54 -3.4 c-3.48 0 -4.98 2.98 -4.98 6.38 c0 3.22 1.18 6.46 5.1 6.46 c2.48 0 4.02 -1.68 4.56 -3.96 l1.42 0 c-0.64 2.78 -2.38 5.12 -6.24 5.12 c-4.44 0 -6.2 -3.5 -6.2 -7.58 c0 -5.5 2.88 -7.58 6.7 -7.58 c2.96 0 5.12 1.58 5.58 4.56 z M47.4 20 l-1.36 0 l0 -14.4 l1.36 0 l0 6.18 l8.52 0 l0 -6.18 l1.36 0 l0 14.4 l-1.36 0 l0 -7.06 l-8.52 0 l0 7.06 z M60.58 20 l-1.4 0 l5.66 -14.4 l1.54 0 l5.52 14.4 l-1.4 0 l-1.66 -4.52 l-6.56 0 z M65.56 6.76 l-2.82 7.56 l5.64 0 z M75.67999999999999 20 l-1.36 0 l0 -14.4 l1.36 0 l0 14.4 z M89.04 20 l-8.28 -12.56 l-0.04 0 l0 12.56 l-1.36 0 l0 -14.4 l1.54 0 l8.32 12.58 l0.04 0 l0 -12.58 l1.36 0 l0 14.4 l-1.58 0 z M100.7 20 l-1.36 0 l0 -14.4 l5.26 0 c3.74 0 4.7 1.86 4.7 4.02 c0 3.22 -2.86 4.02 -5.52 4.02 l-3.08 0 l0 6.36 z M100.7 12.48 l3.12 0 c2.54 0 4.12 -0.52 4.12 -2.96 c0 -1.8 -1.16 -2.76 -3.72 -2.76 l-3.52 0 l0 5.72 z M112.96 12.3 l4.24 0 c2.02 0 3.58 -0.84 3.58 -2.86 c0 -2.16 -1.68 -2.68 -3.5 -2.68 l-4.32 0 l0 5.54 z M117.24 13.46 l-4.28 0 l0 6.54 l-1.36 0 l0 -14.4 l5.64 0 c3.16 0 4.9 1.12 4.9 3.78 c0 1.82 -0.68 2.78 -2.34 3.52 c1.7 0.58 1.8 2.38 1.84 3.9 c0.06 2.18 0.24 2.78 0.6 3.06 l0 0.14 l-1.5 0 c-0.56 -0.98 -0.42 -3.68 -0.64 -4.78 c-0.32 -1.56 -1.5 -1.76 -2.86 -1.76 z M126.8 20 l-1.36 0 l0 -14.4 l1.36 0 l0 14.4 z M142.14000000000001 9.78 l-1.4 0 c-0.56 -2.46 -2.08 -3.4 -4.54 -3.4 c-3.48 0 -4.98 2.98 -4.98 6.38 c0 3.22 1.18 6.46 5.1 6.46 c2.48 0 4.02 -1.68 4.56 -3.96 l1.42 0 c-0.64 2.78 -2.38 5.12 -6.24 5.12 c-4.44 0 -6.2 -3.5 -6.2 -7.58 c0 -5.5 2.88 -7.58 6.7 -7.58 c2.96 0 5.12 1.58 5.58 4.56 z M154.74 20 l-9.78 0 l0 -14.4 l9.58 0 l0 1.16 l-8.22 0 l0 5.2 l7.42 0 l0 1.16 l-7.42 0 l0 5.72 l8.42 0 l0 1.16 z M156.42000000000002 15.7 l1.32 0 c0.22 2.58 1.94 3.52 4.14 3.52 c2.58 0 3.66 -1.4 3.66 -2.98 c0 -4.46 -8.78 -1.5 -8.78 -7.16 c0 -2 1.66 -3.86 4.88 -3.86 c3.24 0 4.86 1.96 4.84 4.3 l-1.3 0 c0 -2.2 -1.7 -3.14 -3.54 -3.14 c-2.76 0 -3.76 1.7 -3.52 3.18 c0.62 3.72 8.78 1.04 8.78 6.62 c0 2.64 -1.94 4.2 -5.26 4.2 c-3 0 -5.22 -1.56 -5.22 -4.68 z M182.42000000000002 17.38 l-4.1 -4.88 c-1.58 0.74 -2.8 2.14 -2.8 3.7 c0 1.9 1.4 3.1 3.24 3.1 c1.54 0 2.7 -0.78 3.66 -1.92 z M180.9 9.2 c0.48 -1.08 -0.2 -2.52 -1.7 -2.52 c-1 0 -1.92 0.66 -1.92 1.72 c0 0.86 0.98 2.08 1.5 2.7 c0.8 -0.48 1.72 -1 2.12 -1.9 z M179.48 12 l3.62 4.28 c0.5 -0.84 0.6 -1.82 0.6 -2.8 l1.18 0 c-0.06 1.3 -0.28 2.64 -1 3.76 l2.34 2.76 l-1.62 0 l-1.4 -1.7 c-1.24 1.5 -2.62 2.08 -4.54 2.08 c-2.5 0 -4.5 -1.7 -4.5 -4.28 c0 -2.16 1.6 -3.6 3.44 -4.46 c-0.78 -0.9 -1.54 -1.96 -1.54 -3.22 c0 -1.82 1.48 -2.82 3.24 -2.82 c1.78 0 3.02 1.26 3.02 2.78 c0 1.92 -1.34 2.72 -2.84 3.62 z M201.88 5.6 l3.28 12.48 l0.04 0 l3.14 -12.48 l1.4 0 l-3.78 14.4 l-1.5 0 l-3.34 -12.72 l-0.04 0 l-3.34 12.72 l-1.5 0 l-3.72 -14.4 l1.36 0 l3.1 12.48 l0.04 0 l3.34 -12.48 l1.52 0 z M211.72 20 l-1.4 0 l5.66 -14.4 l1.54 0 l5.52 14.4 l-1.4 0 l-1.66 -4.52 l-6.56 0 z M216.70000000000002 6.76 l-2.82 7.56 l5.64 0 z M234.06 20 l-9.08 0 l0 -14.4 l1.36 0 l0 13.24 l7.72 0 l0 1.16 z M245.18 20 l-9.08 0 l0 -14.4 l1.36 0 l0 13.24 l7.72 0 l0 1.16 z M257 20 l-9.78 0 l0 -14.4 l9.58 0 l0 1.16 l-8.22 0 l0 5.2 l7.42 0 l0 1.16 l-7.42 0 l0 5.72 l8.42 0 l0 1.16 z M258.14000000000004 6.76 l0 -1.16 l10.48 0 l0 1.16 l-4.56 0 l0 13.24 l-1.36 0 l0 -13.24 l-4.56 0 z M285.90000000000003 20 l-9.78 0 l0 -14.4 l9.58 0 l0 1.16 l-8.22 0 l0 5.2 l7.42 0 l0 1.16 l-7.42 0 l0 5.72 l8.42 0 l0 1.16 z M297.00000000000006 20 l-4.2 -6.36 l-4.18 6.36 l-1.54 0 l4.96 -7.4 l-4.76 -7 l1.58 0 l3.94 6.06 l3.96 -6.06 l1.58 0 l-4.72 7 l4.94 7.4 l-1.56 0 z M301.8600000000001 20 l-1.36 0 l0 -14.4 l5.26 0 c3.74 0 4.7 1.86 4.7 4.02 c0 3.22 -2.86 4.02 -5.52 4.02 l-3.08 0 l0 6.36 z M301.8600000000001 12.48 l3.12 0 c2.54 0 4.12 -0.52 4.12 -2.96 c0 -1.8 -1.16 -2.76 -3.72 -2.76 l-3.52 0 l0 5.72 z M321.8600000000001 20 l-9.08 0 l0 -14.4 l1.36 0 l0 13.24 l7.72 0 l0 1.16 z M323.34000000000015 12.82 c-0.02 -4.2 2.34 -7.6 6.64 -7.6 c4.5 0 6.78 3.38 6.78 7.6 c0 4.14 -2.28 7.56 -6.72 7.56 s-6.7 -3.42 -6.7 -7.56 z M330.0600000000001 19.22 c3.74 0 5.34 -3.04 5.34 -6.4 c0 -4 -2.06 -6.44 -5.38 -6.44 c-3.7 0 -5.32 3.1 -5.32 6.44 c0 3.4 1.6 6.4 5.36 6.4 z M340.8000000000001 12.3 l4.24 0 c2.02 0 3.58 -0.84 3.58 -2.86 c0 -2.16 -1.68 -2.68 -3.5 -2.68 l-4.32 0 l0 5.54 z M345.08000000000015 13.46 l-4.28 0 l0 6.54 l-1.36 0 l0 -14.4 l5.64 0 c3.16 0 4.9 1.12 4.9 3.78 c0 1.82 -0.68 2.78 -2.34 3.52 c1.7 0.58 1.8 2.38 1.84 3.9 c0.06 2.18 0.24 2.78 0.6 3.06 l0 0.14 l-1.5 0 c-0.56 -0.98 -0.42 -3.68 -0.64 -4.78 c-0.32 -1.56 -1.5 -1.76 -2.86 -1.76 z M362.5800000000001 20 l-9.78 0 l0 -14.4 l9.58 0 l0 1.16 l-8.22 0 l0 5.2 l7.42 0 l0 1.16 l-7.42 0 l0 5.72 l8.42 0 l0 1.16 z M366.3600000000001 12.3 l4.24 0 c2.02 0 3.58 -0.84 3.58 -2.86 c0 -2.16 -1.68 -2.68 -3.5 -2.68 l-4.32 0 l0 5.54 z M370.64000000000016 13.46 l-4.28 0 l0 6.54 l-1.36 0 l0 -14.4 l5.64 0 c3.16 0 4.9 1.12 4.9 3.78 c0 1.82 -0.68 2.78 -2.34 3.52 c1.7 0.58 1.8 2.38 1.84 3.9 c0.06 2.18 0.24 2.78 0.6 3.06 l0 0.14 l-1.5 0 c-0.56 -0.98 -0.42 -3.68 -0.64 -4.78 c-0.32 -1.56 -1.5 -1.76 -2.86 -1.76 z">
    </path>
  </g>
</svg>
