<svg width="279.59999999999997" height="177.63984787622294" viewBox="0 0 350 222.3674776705223" class="css-1j8o68f" xmlns="http://www.w3.org/2000/svg">
  <defs id="SvgjsDefs1985">
  </defs>
  <g id="SvgjsG1986" featurekey="symbolFeature-0" transform="matrix(2.4096384048461914,0,0,2.4096384048461914,54.51807243945678,-57.83132302297085)" fill="#000000">
    <title>Cryptocurrency</title>
    <path d="M50.2,42.4A10.44,10.44,0,1,0,60.64,52.84,10.45,10.45,0,0,0,50.2,42.4Zm0,18.39a7.94,7.94,0,1,1,7.94-7.94A8,8,0,0,1,50.2,60.79ZM77.8,45.93H73.62a1.25,1.25,0,0,0-.88.37l-5.29,5.29H64.39a14.18,14.18,0,0,0-3.27-7.9l3.5-3.5a1.25,1.25,0,0,0-1.77-1.77l-3.5,3.5a14.18,14.18,0,0,0-7.63-3.25V35.6L57,30.3a1.25,1.25,0,0,0,.37-.88V25.25a1.25,1.25,0,0,0-2.5,0V28.9L49.58,34.2a1.25,1.25,0,0,0-.37.88v3.56a14.26,14.26,0,0,0-13.2,13H32.62a1.25,1.25,0,0,0-.88.37l-5.29,5.29H22.2a1.25,1.25,0,0,0,0,2.5H27a1.25,1.25,0,0,0,.88-.37l5.29-5.29H36A14.18,14.18,0,0,0,39.29,62l-3.62,3.62a1.25,1.25,0,1,0,1.77,1.77l3.62-3.62A14.18,14.18,0,0,0,49.21,67v3l-5.29,5.29a1.25,1.25,0,0,0-.37.88v4.17a1.25,1.25,0,0,0,2.5,0V76.79l5.29-5.29a1.25,1.25,0,0,0,.37-.88V67A14.27,14.27,0,0,0,64.39,54.09H68a1.25,1.25,0,0,0,.88-.37l5.29-5.29H77.8a1.25,1.25,0,0,0,0-2.5ZM50.2,64.59A11.75,11.75,0,1,1,62,52.84,11.76,11.76,0,0,1,50.2,64.59ZM65.53,44.33a1.23,1.23,0,1,1-1.23,1.23A1.23,1.23,0,0,1,65.53,44.33Zm2.9,1.23a1.23,1.23,0,1,1,1.23,1.23A1.23,1.23,0,0,1,68.43,45.56Zm-2.76,17a1.23,1.23,0,1,1-1.23-1.23A1.23,1.23,0,0,1,65.67,62.54Zm0,4.14a1.23,1.23,0,1,1-1.23-1.23A1.23,1.23,0,0,1,65.67,66.68ZM36,37.08a1.23,1.23,0,1,1,1.23,1.23A1.23,1.23,0,0,1,36,37.08Zm0,4.14a1.23,1.23,0,1,1,1.23,1.23A1.23,1.23,0,0,1,36,41.22Zm-5.9,22.05A1.23,1.23,0,1,1,28.83,62,1.23,1.23,0,0,1,30.06,63.27Zm4.14,0A1.23,1.23,0,1,1,33,62,1.23,1.23,0,0,1,34.2,63.27Z">
    </path>
  </g>
  <g id="SvgjsG1987" featurekey="nameFeature-0" transform="matrix(2.149507522583008,0,0,2.149507522583008,0,135.87129560075178)" fill="#000000">
    <path d="M5 40.04 l-5 0 l0 -28.52 l5 0 c3.4 0 6.12 2.76 6.12 6.16 l0 16.2 c0 1.64 -0.64 3.2 -1.8 4.36 s-2.68 1.8 -4.32 1.8 z M3.8 15.36 l0 20.84 l1.2 0 c0.6 0 1.2 -0.24 1.64 -0.68 s0.68 -1 0.68 -1.64 l0 -16.2 c0 -1.28 -1.04 -2.32 -2.32 -2.32 l-1.2 0 z M24.468000000000004 24.92 l-5.52 0 l0 11.28 l5.56 0 l0 3.8 l-9.36 0 l0 -28.56 l9.36 0 l0 3.8 l-5.56 0 l0 5.88 l5.52 0 l0 3.8 z M39.536 11.440000000000001 l-3.8 14.32 l3.76 14.24 l-3.4 0 l-2.08 -7.84 l-2.04 7.84 l-3.4 0 l3.76 -14.24 l-3.8 -14.32 l3.4 0 l2.08 7.88 l2.12 -7.88 l3.4 0 z M47.364 34 l0 5.96 l-3.8 0 l0 -28.52 l5.92 0 c2.64 0 4.76 2.16 4.76 4.8 l0 13 c0 2.64 -2.12 4.76 -4.76 4.76 l-2.12 0 z M47.364 15.239999999999998 l0 14.96 l2.12 0 c0.56 0 0.96 -0.4 0.96 -0.96 l0 -13 c0 -0.56 -0.4 -1 -0.96 -1 l-2.12 0 z M67.432 40 l-1.44 -9.88 l-4.04 0 l-1.32 9.88 l-3.84 0 l4.32 -28.6 l5.16 0 l5 28.6 l-3.84 0 z M62.472 26.32 l2.96 0 l-1.52 -10.4 z M79.1 11.36 l0 28.48 l-3.8 0 l0 -28.48 l3.8 0 z M94.088 40.08 l-4.08 0 l-2.2 -6.04 l-0.88 0 l0 6.04 l-3.8 0 l0 -28.64 l5.96 0 c2.64 0 4.76 2.12 4.76 4.76 l0 13.08 c0 1.72 -0.88 3.2 -2.24 4.04 z M86.928 15.239999999999998 l0 15 l2.16 0 c0.52 0 0.96 -0.44 0.96 -0.96 l0 -13.08 c0 -0.52 -0.44 -0.96 -0.96 -0.96 l-2.16 0 z M103.596 40.24 c-3.04 0 -5.48 -2.48 -5.48 -5.48 l0 -4.36 l3.88 0 l0 4.36 c0 0.88 0.72 1.6 1.6 1.6 s1.56 -0.72 1.56 -1.6 l0 -3.8 l-7.04 -9.72 l0 -4.96 c0 -3.04 2.44 -5.52 5.48 -5.52 c3 0 5.44 2.48 5.44 5.52 l0 4.32 l-3.88 0 l0 -4.32 c0 -0.92 -0.68 -1.6 -1.56 -1.6 s-1.6 0.68 -1.6 1.6 l0 3.64 l7.04 9.72 l0 5.12 c0 3 -2.44 5.48 -5.44 5.48 z M116.42399999999999 40 l-3.36 0 l0 -3.68 l3.36 0 l0 3.68 z M131.452 11.440000000000001 l-3.8 14.32 l3.76 14.24 l-3.4 0 l-2.08 -7.84 l-2.04 7.84 l-3.4 0 l3.76 -14.24 l-3.8 -14.32 l3.4 0 l2.08 7.88 l2.12 -7.88 l3.4 0 z M149.64 11.440000000000001 l-5.36 17.36 l0 11.2 l-3.88 0 l0 -11.24 l-4.92 -17.32 l4 0 l2.92 10.28 l3.2 -10.28 l4.04 0 z M162.82799999999997 36.28 l-0.08 3.72 l-9.84 0 l4.16 -24.84 l-4.08 0 l0 -3.72 l8.56 0 l-4.16 24.84 l5.44 0 z">
    </path>
  </g>
</svg>
