
<svg class="css-ze2te4 css-qd6ojx" viewBox="0 0 80 80" xmlns="http://www.w3.org/2000/svg">
  <g id="SvgjsG1872" featurekey="rootContainer" transform="matrix(1,0,0,1,0,0)" fill="#262833">
    <rect width="100%" height="100%" rx="10" ry="10">
    </rect>
  </g>
  <g transform="translate(-10, -13)" class="css-uph89i" fill="#bcfd39">
    <title>Cryptocurrency</title>
    <path d="M50.2,42.4A10.44,10.44,0,1,0,60.64,52.84,10.45,10.45,0,0,0,50.2,42.4Zm0,18.39a7.94,7.94,0,1,1,7.94-7.94A8,8,0,0,1,50.2,60.79ZM77.8,45.93H73.62a1.25,1.25,0,0,0-.88.37l-5.29,5.29H64.39a14.18,14.18,0,0,0-3.27-7.9l3.5-3.5a1.25,1.25,0,0,0-1.77-1.77l-3.5,3.5a14.18,14.18,0,0,0-7.63-3.25V35.6L57,30.3a1.25,1.25,0,0,0,.37-.88V25.25a1.25,1.25,0,0,0-2.5,0V28.9L49.58,34.2a1.25,1.25,0,0,0-.37.88v3.56a14.26,14.26,0,0,0-13.2,13H32.62a1.25,1.25,0,0,0-.88.37l-5.29,5.29H22.2a1.25,1.25,0,0,0,0,2.5H27a1.25,1.25,0,0,0,.88-.37l5.29-5.29H36A14.18,14.18,0,0,0,39.29,62l-3.62,3.62a1.25,1.25,0,1,0,1.77,1.77l3.62-3.62A14.18,14.18,0,0,0,49.21,67v3l-5.29,5.29a1.25,1.25,0,0,0-.37.88v4.17a1.25,1.25,0,0,0,2.5,0V76.79l5.29-5.29a1.25,1.25,0,0,0,.37-.88V67A14.27,14.27,0,0,0,64.39,54.09H68a1.25,1.25,0,0,0,.88-.37l5.29-5.29H77.8a1.25,1.25,0,0,0,0-2.5ZM50.2,64.59A11.75,11.75,0,1,1,62,52.84,11.76,11.76,0,0,1,50.2,64.59ZM65.53,44.33a1.23,1.23,0,1,1-1.23,1.23A1.23,1.23,0,0,1,65.53,44.33Zm2.9,1.23a1.23,1.23,0,1,1,1.23,1.23A1.23,1.23,0,0,1,68.43,45.56Zm-2.76,17a1.23,1.23,0,1,1-1.23-1.23A1.23,1.23,0,0,1,65.67,62.54Zm0,4.14a1.23,1.23,0,1,1-1.23-1.23A1.23,1.23,0,0,1,65.67,66.68ZM36,37.08a1.23,1.23,0,1,1,1.23,1.23A1.23,1.23,0,0,1,36,37.08Zm0,4.14a1.23,1.23,0,1,1,1.23,1.23A1.23,1.23,0,0,1,36,41.22Zm-5.9,22.05A1.23,1.23,0,1,1,28.83,62,1.23,1.23,0,0,1,30.06,63.27Zm4.14,0A1.23,1.23,0,1,1,33,62,1.23,1.23,0,0,1,34.2,63.27Z">
    </path>
  </g>
</svg>
