<svg width="289.90000000000003" height="63.63658536585366" viewBox="0 0 410 90" class="css-1j8o68f" xmlns="http://www.w3.org/2000/svg">
  <defs id="SvgjsDefs3599">
    <linearGradient id="SvgjsLinearGradient3606">
      <stop id="SvgjsStop3607" stop-color="#ef4136" offset="0">
      </stop>
      <stop id="SvgjsStop3608" stop-color="#fbb040" offset="1">
      </stop>
    </linearGradient>
    <linearGradient id="SvgjsLinearGradient3609">
      <stop id="SvgjsStop3610" stop-color="#ef4136" offset="0">
      </stop>
      <stop id="SvgjsStop3611" stop-color="#fbb040" offset="1">
      </stop>
    </linearGradient>
  </defs>
  <g id="SvgjsG3600" featurekey="rootContainer" transform="matrix(1,0,0,1,0,0)" fill="#0c0c0c">
    <rect width="410" height="90" rx="10">
    </rect>
  </g>
  <g id="SvgjsG3601" featurekey="symbolFeature-0" transform="matrix(1.0386372804641724,0,0,1.0386372804641724,-1.7594515347169057,-9.927294406452951)" fill="url(#SvgjsLinearGradient3606)">
    <title>Cryptocurrency</title>
    <path d="M50.2,42.4A10.44,10.44,0,1,0,60.64,52.84,10.45,10.45,0,0,0,50.2,42.4Zm0,18.39a7.94,7.94,0,1,1,7.94-7.94A8,8,0,0,1,50.2,60.79ZM77.8,45.93H73.62a1.25,1.25,0,0,0-.88.37l-5.29,5.29H64.39a14.18,14.18,0,0,0-3.27-7.9l3.5-3.5a1.25,1.25,0,0,0-1.77-1.77l-3.5,3.5a14.18,14.18,0,0,0-7.63-3.25V35.6L57,30.3a1.25,1.25,0,0,0,.37-.88V25.25a1.25,1.25,0,0,0-2.5,0V28.9L49.58,34.2a1.25,1.25,0,0,0-.37.88v3.56a14.26,14.26,0,0,0-13.2,13H32.62a1.25,1.25,0,0,0-.88.37l-5.29,5.29H22.2a1.25,1.25,0,0,0,0,2.5H27a1.25,1.25,0,0,0,.88-.37l5.29-5.29H36A14.18,14.18,0,0,0,39.29,62l-3.62,3.62a1.25,1.25,0,1,0,1.77,1.77l3.62-3.62A14.18,14.18,0,0,0,49.21,67v3l-5.29,5.29a1.25,1.25,0,0,0-.37.88v4.17a1.25,1.25,0,0,0,2.5,0V76.79l5.29-5.29a1.25,1.25,0,0,0,.37-.88V67A14.27,14.27,0,0,0,64.39,54.09H68a1.25,1.25,0,0,0,.88-.37l5.29-5.29H77.8a1.25,1.25,0,0,0,0-2.5ZM50.2,64.59A11.75,11.75,0,1,1,62,52.84,11.76,11.76,0,0,1,50.2,64.59ZM65.53,44.33a1.23,1.23,0,1,1-1.23,1.23A1.23,1.23,0,0,1,65.53,44.33Zm2.9,1.23a1.23,1.23,0,1,1,1.23,1.23A1.23,1.23,0,0,1,68.43,45.56Zm-2.76,17a1.23,1.23,0,1,1-1.23-1.23A1.23,1.23,0,0,1,65.67,62.54Zm0,4.14a1.23,1.23,0,1,1-1.23-1.23A1.23,1.23,0,0,1,65.67,66.68ZM36,37.08a1.23,1.23,0,1,1,1.23,1.23A1.23,1.23,0,0,1,36,37.08Zm0,4.14a1.23,1.23,0,1,1,1.23,1.23A1.23,1.23,0,0,1,36,41.22Zm-5.9,22.05A1.23,1.23,0,1,1,28.83,62,1.23,1.23,0,0,1,30.06,63.27Zm4.14,0A1.23,1.23,0,1,1,33,62,1.23,1.23,0,0,1,34.2,63.27Z">
    </path>
  </g>
  <g id="SvgjsG3602" featurekey="nameFeature-0" transform="matrix(1.4060931205749512,0,0,1.4060931205749512,97.18781386006026,3.283226781997705)" fill="url(#SvgjsLinearGradient3609)">
    <path d="M2 40 l0 -27.4 l8.44 0 c7.64 0 13.88 5.76 13.88 13.68 s-6.24 13.72 -13.88 13.72 l-8.44 0 z M10.36 14.559999999999999 l-6.24 0 l0 23.48 l6.24 0 c6.64 0 11.84 -5 11.84 -11.76 s-5.2 -11.72 -11.84 -11.72 z M46.16 35.28 c-1.84 3.04 -4.76 5 -9.24 5 c-6.04 0 -10.4 -4.48 -10.4 -10.32 c0 -5.8 4.4 -10.28 10.24 -10.28 c5.96 0 10.12 4.56 10.12 9.68 c0 0.64 -0.04 1.08 -0.08 1.32 l-18.2 0 c0.32 4.88 4 7.68 8.32 7.68 c3.96 0 6.16 -1.56 7.72 -4.12 z M36.76 21.56 c-4.08 0 -7.68 2.84 -8.16 7.32 l16.24 0 c-0.4 -4.52 -3.96 -7.32 -8.08 -7.32 z M58.76 29.64 l7.68 10.36 l-2.48 0 l-6.52 -8.88 l-6.56 8.88 l-2.4 0 l7.64 -10.32 l-7.04 -9.68 l2.48 0 l5.92 8.2 l5.96 -8.2 l2.44 0 z M78.03999999999999 30.4 l-6.88 0 l0 9.6 l-2.12 0 l0 -27.4 l9.44 0 c5.6 0 9.4 3.92 9.4 8.88 c0 5.12 -3.72 8.92 -9.84 8.92 z M77.88 14.559999999999999 l-6.72 0 l0 13.88 l7.12 0 c4.68 0 7.48 -3.08 7.48 -7 c0 -3.8 -2.76 -6.88 -7.88 -6.88 z M100.95999999999998 21.56 c-4.8 0 -8.36 3.68 -8.36 8.44 c0 4.72 3.56 8.4 8.36 8.4 c4.72 0 8.36 -3.64 8.36 -8.4 c0 -4.8 -3.64 -8.44 -8.36 -8.44 z M109.19999999999999 40 l0 -3.96 c-1.64 2.48 -4.52 4.24 -8.36 4.24 c-5.72 0 -10.2 -4.48 -10.2 -10.32 c0 -5.8 4.48 -10.28 10.2 -10.28 c3.84 0 6.68 1.72 8.36 4.12 l0 -3.8 l1.96 0 l0 20 l-1.96 0 z M116.32 14.719999999999999 l-1.96 0 l0 -2.12 l1.96 0 l0 2.12 z M116.32 40 l-1.96 0 l0 -20 l1.96 0 l0 20 z M128.16 19.68 l0 2.16 c-3.84 0 -6.68 2.92 -6.68 7.28 l0 10.88 l-1.96 0 l0 -20 l1.96 0 l0 3.72 c0.76 -1.52 2.92 -4.04 6.68 -4.04 z M130.16 33.92 l2 0 c0.36 2.84 2.56 4.52 6.36 4.52 c3.68 0 5.6 -1.52 5.6 -3.92 c0 -6.08 -13.2 -1.48 -13.2 -9.32 c0 -3.28 2.76 -5.52 7.04 -5.52 c4.44 0 7.28 2.32 7.52 5.92 l-1.96 0 c-0.2 -2.08 -1.88 -4.08 -5.6 -4.08 c-3.16 0 -5 1.44 -5 3.6 c0 5.88 13.16 1.36 13.16 9.32 c0 3.4 -2.8 5.88 -7.6 5.88 c-4.84 0 -7.84 -2.2 -8.32 -6.4 z M150.67999999999998 40 l-2 0 l0 -2.32 l2 0 l0 2.32 z M163.15999999999997 29.64 l7.68 10.36 l-2.48 0 l-6.52 -8.88 l-6.56 8.88 l-2.4 0 l7.64 -10.32 l-7.04 -9.68 l2.48 0 l5.92 8.2 l5.96 -8.2 l2.44 0 z M189.75999999999996 20 l-7.32 19.52 c-1.88 5.24 -4.44 7.44 -8.56 7.44 l-0.76 0 l0 -1.88 l0.72 0 c3 0 4.92 -1.52 6.48 -5.56 l-8.28 -19.52 l2.2 0 l7.2 16.96 l6.2 -16.96 l2.12 0 z M207.35999999999996 21.76 l-13.24 16.48 l13.88 0 l0 1.76 l-16.44 0 l0 -1.76 l13.28 -16.48 l-12.76 0 l0 -1.76 l15.28 0 l0 1.76 z">
    </path>
  </g>
</svg>
