<svg width="560" height="140" viewBox="0 0 410 100" class="css-1j8o68f" xmlns="http://www.w3.org/2000/svg">
  <defs id="SvgjsDefs1871">
  </defs>
  <g id="SvgjsG1872" featurekey="rootContainer" transform="matrix(1,0,0,1,0,0)" fill="#262833">
    <rect width="410" height="100" rx="24" ry="24">
    </rect>
  </g>
  <g id="SvgjsG1873" featurekey="mugSzh-0" transform="matrix(1.0386372804641724,0,0,1.0386372804641724,-1.7594515347169057,-4.927294406452951)" fill="#39e991">
    <title>Cryptocurrency</title>
    <path d="M50.2,42.4A10.44,10.44,0,1,0,60.64,52.84,10.45,10.45,0,0,0,50.2,42.4Zm0,18.39a7.94,7.94,0,1,1,7.94-7.94A8,8,0,0,1,50.2,60.79ZM77.8,45.93H73.62a1.25,1.25,0,0,0-.88.37l-5.29,5.29H64.39a14.18,14.18,0,0,0-3.27-7.9l3.5-3.5a1.25,1.25,0,0,0-1.77-1.77l-3.5,3.5a14.18,14.18,0,0,0-7.63-3.25V35.6L57,30.3a1.25,1.25,0,0,0,.37-.88V25.25a1.25,1.25,0,0,0-2.5,0V28.9L49.58,34.2a1.25,1.25,0,0,0-.37.88v3.56a14.26,14.26,0,0,0-13.2,13H32.62a1.25,1.25,0,0,0-.88.37l-5.29,5.29H22.2a1.25,1.25,0,0,0,0,2.5H27a1.25,1.25,0,0,0,.88-.37l5.29-5.29H36A14.18,14.18,0,0,0,39.29,62l-3.62,3.62a1.25,1.25,0,1,0,1.77,1.77l3.62-3.62A14.18,14.18,0,0,0,49.21,67v3l-5.29,5.29a1.25,1.25,0,0,0-.37.88v4.17a1.25,1.25,0,0,0,2.5,0V76.79l5.29-5.29a1.25,1.25,0,0,0,.37-.88V67A14.27,14.27,0,0,0,64.39,54.09H68a1.25,1.25,0,0,0,.88-.37l5.29-5.29H77.8a1.25,1.25,0,0,0,0-2.5ZM50.2,64.59A11.75,11.75,0,1,1,62,52.84,11.76,11.76,0,0,1,50.2,64.59ZM65.53,44.33a1.23,1.23,0,1,1-1.23,1.23A1.23,1.23,0,0,1,65.53,44.33Zm2.9,1.23a1.23,1.23,0,1,1,1.23,1.23A1.23,1.23,0,0,1,68.43,45.56Zm-2.76,17a1.23,1.23,0,1,1-1.23-1.23A1.23,1.23,0,0,1,65.67,62.54Zm0,4.14a1.23,1.23,0,1,1-1.23-1.23A1.23,1.23,0,0,1,65.67,66.68ZM36,37.08a1.23,1.23,0,1,1,1.23,1.23A1.23,1.23,0,0,1,36,37.08Zm0,4.14a1.23,1.23,0,1,1,1.23,1.23A1.23,1.23,0,0,1,36,41.22Zm-5.9,22.05A1.23,1.23,0,1,1,28.83,62,1.23,1.23,0,0,1,30.06,63.27Zm4.14,0A1.23,1.23,0,1,1,33,62,1.23,1.23,0,0,1,34.2,63.27Z">
    </path>
  </g>
  <g id="SvgjsG1874" featurekey="PPkF4s-0" transform="matrix(2.1386234760284424,0,0,2.1386234760284424,96,22)" fill="#fff">
    <path d="M1.56 5.380000000000001 l6.04 0 q3.26 0 5.34 1.84 q1.12 0.98 1.7 2.37 t0.58 3.09 q0 1.66 -0.6 3.09 t-1.68 2.41 q-1 0.88 -2.37 1.35 t-2.97 0.47 l-6.04 0 l0 -14.62 z M7.6 17.259999999999998 q1.88 0 3.15 -0.98 t1.27 -3.58 t-1.28 -3.58 t-3.14 -0.98 l-2.88 0 l0 9.12 l2.88 0 z M20.53 19.74 q-1.37 -0.54 -2.35 -1.83 t-0.98 -3.37 t0.99 -3.36 t2.37 -1.82 t2.62 -0.54 q1.44 0 2.74 0.64 t2.13 1.88 t0.87 2.94 q0 0.52 -0.02 0.9 t-0.04 0.48 l-8.68 0 q0.24 1.16 1.2 1.58 t1.8 0.42 q1.08 0 1.72 -0.39 t1.1 -0.89 l2.32 1.34 q-1.88 2.56 -5.14 2.56 q-1.28 0 -2.65 -0.54 z M21.14 12.05 q-0.78 0.61 -0.88 1.49 l5.5 0 q-0.06 -0.52 -0.4 -1 t-0.91 -0.79 t-1.29 -0.31 q-1.24 0 -2.02 0.61 z M35.8 16.740000000000002 l-2.3 3.26 l-3.74 0 l4.14 -5.44 l-4.2 -5.52 l3.72 0 l2.38 3.38 l2.34 -3.38 l3.76 0 l-4.26 5.52 l4.16 5.44 l-3.76 0 z M52.79 6.08 q1.33 0.7 2.05 1.89 t0.72 2.65 t-0.67 2.62 t-2.01 1.83 t-3.24 0.67 l-2.76 0 l0 4.26 l-3.16 0 l0 -14.62 l5.94 0 q1.8 0 3.13 0.7 z M51.8 12.3 q0.58 -0.7 0.58 -1.68 q0 -0.64 -0.3 -1.21 t-0.89 -0.93 t-1.41 -0.36 l-2.9 0 l0 4.88 l3.22 0 q1.12 0 1.7 -0.7 z M65.6 18.9 q-0.38 0.52 -1.31 0.93 t-2.03 0.41 q-1.7 0 -2.95 -0.76 t-1.91 -2.07 t-0.66 -2.91 t0.66 -2.91 t1.91 -2.07 t2.95 -0.76 q1.14 0 2.01 0.39 t1.33 0.99 l0 -1.14 l2.96 0 l0 11 l-2.96 0 l0 -1.1 z M64.89999999999999 12.25 q-0.82 -0.87 -2.2 -0.87 q-1.4 0 -2.21 0.87 t-0.81 2.25 q0 1.34 0.83 2.22 t2.19 0.88 q1.4 0 2.21 -0.83 t0.81 -2.27 q0 -1.38 -0.82 -2.25 z M74.32 7.369999999999999 q-0.48 0.47 -1.16 0.47 q-0.7 0 -1.19 -0.47 t-0.49 -1.15 q0 -0.66 0.49 -1.13 t1.19 -0.47 q0.68 0 1.16 0.47 t0.48 1.13 q0 0.68 -0.48 1.15 z M71.66 9.02 l3 0 l0 10.98 l-3 0 l0 -10.98 z M82.86 11.87 q-0.86 0.21 -1.58 0.99 t-0.72 2.28 l0 4.86 l-2.98 0 l0 -11 l2.98 0 l0 1.46 q0.74 -0.98 1.81 -1.33 t1.95 -0.33 l0 2.92 q-0.6 -0.06 -1.46 0.15 z M85.48 18.54 l1.56 -2.08 q0.72 0.5 1.68 0.84 t1.88 0.34 q0.68 0 1.13 -0.28 t0.45 -0.7 t-0.51 -0.59 t-0.99 -0.24 t-0.62 -0.09 q-1.2 -0.2 -2.07 -0.48 t-1.58 -1 t-0.71 -1.98 q0 -2.08 1.51 -2.78 t3.03 -0.7 q1.3 0 2.4 0.38 t2.18 1.2 l-1.56 2.04 q-0.78 -0.46 -1.54 -0.74 t-1.58 -0.28 q-0.5 0 -0.97 0.22 t-0.47 0.6 q0 0.48 0.65 0.68 t1.43 0.3 q1.4 0.24 2.24 0.5 t1.49 0.97 t0.65 2.01 q0 1.72 -1.18 2.65 t-3.34 0.93 q-3 0 -5.16 -1.72 z M99.45 19.69 q-0.49 0.47 -1.17 0.47 t-1.16 -0.47 t-0.48 -1.13 q0 -0.64 0.48 -1.12 t1.16 -0.48 t1.17 0.48 t0.49 1.12 q0 0.66 -0.49 1.13 z M106.6 16.740000000000002 l-2.3 3.26 l-3.74 0 l4.14 -5.44 l-4.2 -5.52 l3.72 0 l2.38 3.38 l2.34 -3.38 l3.76 0 l-4.26 5.52 l4.16 5.44 l-3.76 0 z M115.96 24.12 l1.9 -4.52 l-4.72 -10.56 l3.46 0 l2.78 7 l2.56 -7 l3.46 0 l-6.14 15.08 l-3.3 0 z M126.53999999999999 11.62 l0 -2.58 l10.46 0 l-6 8.36 l5.38 0 l0 2.6 l-10.66 0 l5.98 -8.38 l-5.16 0 z">
    </path>
  </g>
</svg>
