<svg width="289.90000000000003" height="67.11970443349755" viewBox="0 0 406 94" class="css-1j8o68f" xmlns="http://www.w3.org/2000/svg">
  <defs id="SvgjsDefs4975">
  </defs>
  <g id="SvgjsG4976" featurekey="symbolFeature-0" transform="matrix(1.0386372804641724,0,0,1.0386372804641724,-21.759451534716906,-7.927294406452951)" fill="#7216f4">
    <title>Cryptocurrency</title>
    <path d="M50.2,42.4A10.44,10.44,0,1,0,60.64,52.84,10.45,10.45,0,0,0,50.2,42.4Zm0,18.39a7.94,7.94,0,1,1,7.94-7.94A8,8,0,0,1,50.2,60.79ZM77.8,45.93H73.62a1.25,1.25,0,0,0-.88.37l-5.29,5.29H64.39a14.18,14.18,0,0,0-3.27-7.9l3.5-3.5a1.25,1.25,0,0,0-1.77-1.77l-3.5,3.5a14.18,14.18,0,0,0-7.63-3.25V35.6L57,30.3a1.25,1.25,0,0,0,.37-.88V25.25a1.25,1.25,0,0,0-2.5,0V28.9L49.58,34.2a1.25,1.25,0,0,0-.37.88v3.56a14.26,14.26,0,0,0-13.2,13H32.62a1.25,1.25,0,0,0-.88.37l-5.29,5.29H22.2a1.25,1.25,0,0,0,0,2.5H27a1.25,1.25,0,0,0,.88-.37l5.29-5.29H36A14.18,14.18,0,0,0,39.29,62l-3.62,3.62a1.25,1.25,0,1,0,1.77,1.77l3.62-3.62A14.18,14.18,0,0,0,49.21,67v3l-5.29,5.29a1.25,1.25,0,0,0-.37.88v4.17a1.25,1.25,0,0,0,2.5,0V76.79l5.29-5.29a1.25,1.25,0,0,0,.37-.88V67A14.27,14.27,0,0,0,64.39,54.09H68a1.25,1.25,0,0,0,.88-.37l5.29-5.29H77.8a1.25,1.25,0,0,0,0-2.5ZM50.2,64.59A11.75,11.75,0,1,1,62,52.84,11.76,11.76,0,0,1,50.2,64.59ZM65.53,44.33a1.23,1.23,0,1,1-1.23,1.23A1.23,1.23,0,0,1,65.53,44.33Zm2.9,1.23a1.23,1.23,0,1,1,1.23,1.23A1.23,1.23,0,0,1,68.43,45.56Zm-2.76,17a1.23,1.23,0,1,1-1.23-1.23A1.23,1.23,0,0,1,65.67,62.54Zm0,4.14a1.23,1.23,0,1,1-1.23-1.23A1.23,1.23,0,0,1,65.67,66.68ZM36,37.08a1.23,1.23,0,1,1,1.23,1.23A1.23,1.23,0,0,1,36,37.08Zm0,4.14a1.23,1.23,0,1,1,1.23,1.23A1.23,1.23,0,0,1,36,41.22Zm-5.9,22.05A1.23,1.23,0,1,1,28.83,62,1.23,1.23,0,0,1,30.06,63.27Zm4.14,0A1.23,1.23,0,1,1,33,62,1.23,1.23,0,0,1,34.2,63.27Z">
    </path>
  </g>
  <g id="SvgjsG4977" featurekey="textGroupContainer" transform="matrix(1,0,0,1,405,0)" fill="#f9e1cf">
    <rect y="0" height="1" width="1" opacity="0">
    </rect>
    <rect y="0" x="-325" width="3" height="94">
    </rect>
  </g>
  <g id="SvgjsG4978" featurekey="nameFeature-0" transform="matrix(1.2784920930862427,0,0,1.2784920930862427,93.85768581198379,9.680887239660075)" fill="#f9e1cf">
    <path d="M13.08 40 l-9.84 0 l0 -28.8 l9.84 0 c3.2 0 6.2 0.2 8.88 2.16 c3.8 2.76 4.8 8.36 4.8 12.2 c0 3.8 -0.84 8.04 -3.48 10.92 c-2.64 2.96 -6.4 3.52 -10.2 3.52 z M5.96 13.52 l0 24.16 l6.52 0 c2.44 0 4.56 -0.16 6.76 -1.32 c3.84 -1.96 4.8 -6.88 4.8 -10.8 c0 -4.2 -0.92 -8.8 -4.96 -10.96 c-1.72 -0.92 -4.2 -1.08 -6.6 -1.08 l-6.52 0 z M33.24 28.2 l13.52 0 c0 -4.04 -2.24 -7.32 -6.56 -7.32 c-4.24 0 -6.48 3.4 -6.96 7.32 z M49.32 30.2 l-16.08 0 c-0.04 4.48 2.36 8.2 6.96 8.2 c3.12 0 5.56 -1.72 6.28 -4.76 l2.68 0 c-1.2 3.92 -3.68 6.92 -8.96 6.92 c-6.64 0 -9.52 -4.72 -9.52 -10.84 c0 -6.04 3.6 -11 9.52 -11 c5.68 0 9.16 4.04 9.12 11.48 z M67.48 40 l-6.28 -8.96 l-6.44 8.96 l-2.92 0 l7.96 -10.72 l-7.32 -10 l2.96 0 l5.72 8.24 l5.88 -8.24 l3.04 0 l-7.48 10 l7.76 10.72 l-2.88 0 z M76.96000000000001 40 l-2.72 0 l0 -28.8 l10.52 0 c7.48 0 9.4 3.72 9.4 8.04 c0 6.44 -5.72 8.04 -11.04 8.04 l-6.16 0 l0 12.72 z M76.96000000000001 24.96 l6.24 0 c5.08 0 8.24 -1.04 8.24 -5.92 c0 -3.6 -2.32 -5.52 -7.44 -5.52 l-7.04 0 l0 11.44 z M112 32.36 l0 -3.24 c-2.04 0.84 -4.12 1 -6.2 1.16 c-3.64 0.28 -5.84 1.6 -5.84 4.4 c0 2.52 2.2 3.72 4.48 3.72 c3.8 0 7.56 -1.84 7.56 -6.04 z M104.64 28.36 l3.32 -0.44 c0.88 -0.08 2.36 -0.32 3.16 -0.68 s0.88 -1.44 0.88 -2.16 c0 -2.44 -1.44 -4.2 -5.16 -4.2 c-3.32 0 -5.6 1.08 -6.04 4.68 l-2.44 0 c0.36 -4.88 4 -6.84 8.52 -6.84 c4.2 0 7.52 1.64 7.52 6.44 l0 11.28 c0 1.88 0.48 2.32 2.52 1.6 l0 1.88 c-0.36 0.12 -1.2 0.4 -1.88 0.4 c-0.4 0 -0.72 -0.04 -1.08 -0.12 c-1.6 -0.24 -1.88 -1.64 -1.92 -3.08 c-2 2.24 -4.72 3.44 -7.72 3.44 c-3.64 0 -6.92 -1.96 -6.92 -5.96 c0 -3.48 2.4 -5.6 7.24 -6.24 z M123.44000000000001 40 l-2.4 0 l0 -20.72 l2.4 0 l0 20.72 z M123.56000000000002 14.760000000000002 l-2.64 0 l0 -3.56 l2.64 0 l0 3.56 z M132.08 29.84 l0 10.16 l-2.4 0 l0 -20.72 l2.4 0 l0 3.88 l0.08 0 c1.32 -3.32 3.28 -4.44 6.76 -4.44 l0 2.6 c-5.4 -0.12 -6.84 3.88 -6.84 8.52 z M141.84 33.519999999999996 l2.44 0 c0.76 3.56 2.6 4.88 6.2 4.88 c3.48 0 5.12 -1.84 5.12 -3.84 c0 -6 -13.28 -1.76 -13.28 -9.92 c0 -3.44 2.68 -5.92 7.28 -5.92 c4.48 0 7.4 1.84 8 6.52 l-2.44 0 c-0.44 -3.2 -2.6 -4.36 -5.6 -4.36 c-3.04 0 -4.68 1.44 -4.68 3.56 c0 5.64 13.28 2.12 13.28 10.08 c0 3.96 -3.56 6.04 -8.44 6.04 s-7.68 -3.12 -7.88 -7.04 z M167 40 l-2.92 0 l0 -3.52 l2.92 0 l0 3.52 z M187.48000000000002 40 l-6.28 -8.96 l-6.44 8.96 l-2.92 0 l7.96 -10.72 l-7.32 -10 l2.96 0 l5.72 8.24 l5.88 -8.24 l3.04 0 l-7.48 10 l7.76 10.72 l-2.88 0 z M193.84 47.88 l0 -2.24 c0.64 0.12 1.32 0.24 2 0.24 c2.72 0 3.12 -3.92 4.04 -5.72 l-8.04 -20.88 l2.68 0 l6.64 17.8 l6.64 -17.8 l2.6 0 l-7.72 20.44 c-1.96 5.2 -3.24 8.44 -6.56 8.44 c-0.84 0 -1.64 -0.12 -2.28 -0.28 z M229.8 40 l-17.36 0 l0 -2.12 l13.76 -16.6 l-12.84 0 l0 -2 l15.92 0 l0 2.12 l-13.76 16.6 l14.28 0 l0 2 z">
    </path>
  </g>
</svg>
