<svg width="800" height="600" xmlns="http://www.w3.org/2000/svg">
 <g>
  <title>DexPairs - MultiChains Background</title>
  <g stroke="null" id="svg_1">
   <polygon stroke="null" id="svg_2" points="399.96038818359375,47.5 397.0055236816406,59.00897979736328 397.0055236816406,392.9250717163086 399.96038818359375,396.3035202026367 535.1226806640625,304.68135833740234 399.96038818359375,47.5 " fill="#343434"/>
   <polygon stroke="null" id="svg_3" points="399.96038818359375,47.5 264.79803466796875,304.68135833740234 399.96038818359375,396.3035202026367 399.96038818359375,234.2337875366211 399.96038818359375,47.5 " fill="#8c8c8c"/>
   <polygon stroke="null" id="svg_4" points="399.96038818359375,425.65401458740234 398.29583740234375,427.97713470458984 398.29583740234375,546.9247360229492 399.96038818359375,552.4999923706055 535.2019653320312,334.07747650146484 399.96038818359375,425.65401458740234 " fill="#3d3d3c"/>
   <polygon stroke="null" id="svg_5" points="399.96038818359375,552.4999923706055 399.96038818359375,425.6489486694336 264.79803466796875,334.07747650146484 399.96038818359375,552.4999923706055 " fill="#8c8c8c"/>
   <polygon stroke="null" id="svg_6" points="399.96038818359375,396.3035202026367 535.1226806640625,304.6864242553711 399.96038818359375,234.2337875366211 399.96038818359375,396.3035202026367 " fill="#161616"/>
   <polygon stroke="null" id="svg_7" points="264.79803466796875,304.6864242553711 399.96038818359375,396.3035202026367 399.96038818359375,234.2337875366211 264.79803466796875,304.6864242553711 " fill="#3a3a39"/>
  </g>
  <g id="svg_8" stroke="null">
   <path id="svg_9" d="m649.88726,326.24155c5.11313,-2.98872 12.89321,-2.98872 18.00634,0l52.17495,30.49724c3.07949,1.79986 4.77072,4.48207 5.07368,7.25097l0.04985,0l0,153.29364c-0.06793,3.02048 -1.77505,6.02065 -5.12354,7.97782l-52.17495,30.49729c-5.11313,2.98865 -12.89321,2.98865 -18.00634,0l-52.17482,-30.49729c-3.33441,-1.94899 -4.93464,-4.97008 -5.01388,-7.97782c-0.00814,-0.30856 -0.00885,-0.56287 -0.00025,-0.77232l0.00025,-151.48924c-0.00778,-0.21309 -0.00786,-0.42526 -0.00019,-0.63653l0.00019,-0.39556l0.02331,0c0.23174,-2.79951 1.84622,-5.41322 4.99057,-7.25097l52.17482,-30.49724l0.00001,0.00001zm67.09222,123.26945l-49.08587,28.69167c-5.11313,2.98896 -12.89321,2.98896 -18.00634,0l-48.97658,-28.62772l0,67.40685l48.97658,28.47586c2.89432,1.71135 5.90368,3.37875 8.83416,3.4515l0.16901,0.00242c2.92472,0.01061 5.76425,-1.63285 8.64351,-3.1887l49.44554,-28.9866l0,-67.22529l-0.00001,0.00001zm-132.76708,64.43972c0,5.87334 0.6168,9.73373 1.84148,12.45323c1.01507,2.25422 2.5381,3.97679 5.31907,6.07309l0.15874,0.11882c0.61031,0.45557 1.28261,0.93267 2.101,1.49311l0.96507,0.65411l2.96351,1.9793l-4.25048,7.77656l-3.31693,-2.21694l-0.55752,-0.37889c-0.95905,-0.65532 -1.75396,-1.21789 -2.4954,-1.77137c-7.92582,-5.91335 -10.88172,-12.36047 -10.94005,-25.77243l-0.00088,-0.40859l8.2124,0l-0.00001,0zm70.57186,-105.52673c-0.38021,0.14428 -0.73659,0.3116 -1.06147,0.50134l-52.17492,30.49729c-0.05476,0.03183 -0.10697,0.06365 -0.15666,0.09487l-0.04418,0.02819l0.08193,0.05213l0.11891,0.07123l52.17492,30.49729c0.32488,0.18975 0.68126,0.35706 1.06147,0.50134l0,-62.2437l0,0.00002zm8.21234,0l0,62.2437c0.38049,-0.14428 0.73686,-0.3116 1.06174,-0.50134l52.17468,-30.49729c0.05479,-0.03183 0.10711,-0.06365 0.15669,-0.09487l0.04438,-0.02849l-0.0819,-0.05183l-0.11916,-0.07123l-52.17468,-30.49729c-0.32488,-0.18975 -0.68126,-0.35706 -1.06174,-0.50134l-0.00001,-0.00002zm53.98287,-33.56021l-46.80461,27.3583l46.80461,27.3583l0,-54.7166zm-116.06879,0.06396l0,54.58868l46.69531,-27.29434l-46.69531,-27.29434zm63.14766,-40.64971c-2.71325,-1.58596 -7.6223,-1.58596 -10.33555,0l-52.17492,30.49708c-0.05476,0.03213 -0.10697,0.06365 -0.15666,0.09518l-0.04418,0.02819l0.08193,0.05183l0.11891,0.07153l52.17492,30.49699c2.71325,1.58617 7.6223,1.58617 10.33555,0l52.17468,-30.49699c0.05479,-0.03213 0.10711,-0.06365 0.15669,-0.09487l0.04438,-0.02849l-0.0819,-0.05183l-0.11916,-0.07153l-52.17468,-30.49708l-0.00001,-0.00001zm60.63082,3.34432l3.31699,2.21697l0.55744,0.3788c0.95902,0.65514 1.75396,1.21801 2.49548,1.77122c7.92582,5.91347 10.88177,12.36066 10.94011,25.77261l0.00082,0.40859l-8.21234,0c0,-5.87364 -0.61688,-9.73373 -1.84161,-12.45353c-1.0149,-2.25401 -2.53794,-3.97664 -5.31885,-6.07272l-0.15888,-0.11906c-0.61031,-0.45533 -1.28253,-0.93242 -2.10102,-1.49299l-0.96505,-0.65414l-2.96362,-1.97918l4.25053,-7.77656l0,-0.00001z" fill="#1969FF" stroke="null"/>
  </g>
  <g id="svg_10" stroke="null">
   <path id="svg_11" d="m207.49004,97.5865a15.02128,15.56352 0 0 0 -14.65683,0l-33.62498,20.20689l-22.84771,13.17837l-33.62464,20.20689a15.02362,15.56596 0 0 1 -14.65717,0l-26.72729,-15.81433a14.58189,15.10828 0 0 1 -7.32848,-12.73905l0,-31.18909a13.71017,14.20509 0 0 1 7.32848,-12.73908l26.29622,-15.37476a15.02329,15.56561 0 0 1 14.65717,0l26.29622,15.37476a14.58209,15.10849 0 0 1 7.32842,12.73908l0,20.20685l22.84771,-13.61735l0,-20.20723a13.71017,14.20509 0 0 0 -7.32842,-12.73898l-48.71288,-28.99249a15.02329,15.56561 0 0 0 -14.65717,0l-49.57494,28.99249a13.71017,14.20509 0 0 0 -7.32848,12.73898l0,58.42452a13.7098,14.20471 0 0 0 7.32848,12.73905l49.57494,28.9926a15.02362,15.56596 0 0 0 14.65717,0l33.62464,-19.7676l22.84771,-13.6177l33.62498,-19.76742a15.02124,15.56349 0 0 1 14.65683,0l26.29622,15.37465a14.58236,15.10876 0 0 1 7.32875,12.73905l0,31.18898a13.71017,14.20509 0 0 1 -7.32875,12.73908l-26.29622,15.81433a15.02299,15.56529 0 0 1 -14.65683,0l-26.29656,-15.375a14.58287,15.10929 0 0 1 -7.32842,-12.73908l0,-20.20699l-22.84771,13.6177l0,20.20689a13.71041,14.20533 0 0 0 7.32875,12.73905l49.575,28.99267a15.02299,15.56529 0 0 0 14.65683,0l49.575,-28.99267a14.58236,15.10876 0 0 0 7.32875,-12.73905l0,-58.42442a13.71017,14.20509 0 0 0 -7.32875,-12.73901l-50.00607,-29.43158l0.00003,0z" fill="#8247e5" stroke="null"/>
  </g>
  <g id="svg_12" stroke="null">
   <g id="svg_13" stroke="null">
    <polygon id="svg_14" points="152.55380249023438,538.4614868164062 211.7679901123047,538.4614868164062 211.7679901123047,478.64239501953125 182.16090393066406,478.64239501953125 182.16090393066406,508.5505676269531 152.55380249023438,508.5505676269531 152.55380249023438,538.4614868164062 " fill="#48a8a6" stroke="null"/>
    <polygon id="svg_15" points="120.44496154785156,538.4614868164062 61.23077392578125,538.4614868164062 61.23077392578125,478.64239501953125 90.8378677368164,478.64239501953125 90.8378677368164,508.5505676269531 120.44496154785156,508.5505676269531 120.44496154785156,538.4614868164062 " fill="#48a8a6" stroke="null"/>
    <rect id="svg_16" width="59.21457" height="29.87461" fill="#48a8a6" y="387.53851" x="61.23077" stroke="null"/>
    <rect id="svg_17" x="152.55468" width="59.21457" height="29.87461" fill="#48a8a6" y="387.53851" stroke="null"/>
   </g>
  </g>
  <g id="svg_18" stroke="null">
   <polygon id="svg_19" points="614.7760620117188,123.39730834960938 637.0130615234375,101.61162567138672 641.8242797851562,96.8979721069336 652.9389038085938,86.00894165039062 691.1016235351562,123.39730834960938 713.340087890625,101.61162567138672 652.9389038085938,42.436004638671875 592.5376586914062,101.61162567138672 614.7760620117188,123.39730834960938 " fill="#f0b90b" stroke="null"/>
   <rect id="svg_20" x="562.55468" y="191.85314" width="19.96222" height="19.96216" fill="#f0b90b" transform="matrix(1.11398 -1.09138 1.11398 1.09138 -209.696 543.576)" stroke="null"/>
   <polygon id="svg_21" points="691.1016235351562,154.60269165039062 652.9389038085938,191.99105834960938 639.536865234375,178.8609619140625 637.0130615234375,176.3883819580078 614.7760620117188,154.60269165039062 592.5376586914062,176.3883819580078 652.9389038085938,235.56399536132812 713.340087890625,176.3883819580078 691.1016235351562,154.60269165039062 " fill="#f0b90b" stroke="null"/>
   <rect id="svg_22" x="499.91573" y="157.59469" width="19.96216" height="19.96216" fill="#f0b90b" transform="matrix(1.11398 -1.09138 1.11398 1.09138 -178.08 512.602)" stroke="null"/>
   <rect id="svg_23" x="625.19371" y="226.11156" width="19.96222" height="19.96216" fill="#f0b90b" transform="matrix(1.11398 -1.09138 1.11398 1.09138 -241.311 574.55)" stroke="null"/>
  </g>
 </g>

</svg>