<svg width="606" height="773" viewBox="0 0 606 773" fill="none" xmlns="http://www.w3.org/2000/svg">
<path d="M269.733 8.39516C288.399 -1.46505 316.801 -1.46505 335.467 8.39516L525.937 109.01C537.179 114.948 543.353 123.797 544.459 132.932L544.641 132.932V638.67C544.393 648.635 538.161 658.533 525.937 664.99L335.467 765.605C316.801 775.465 288.399 775.465 269.733 765.605L79.2635 664.99C67.0909 658.56 61.2491 648.593 60.9598 638.67C60.9301 637.652 60.9275 636.813 60.9589 636.122L60.9598 136.337C60.9314 135.634 60.9311 134.934 60.9591 134.237L60.9598 132.932L61.0449 132.932C61.8909 123.696 67.7847 115.073 79.2635 109.01L269.733 8.39516ZM514.66 415.079L335.467 509.737C316.801 519.598 288.399 519.598 269.733 509.737L90.939 415.29V637.675L269.733 731.621C280.299 737.267 291.285 742.768 301.983 743.008L302.6 743.016C313.277 743.051 323.643 737.629 334.154 732.496L514.66 636.865V415.079ZM29.9802 627.675C29.9802 647.052 32.2319 659.788 36.7027 668.76C40.4083 676.197 45.9683 681.88 56.1205 688.796L56.7 689.188C58.928 690.691 61.3823 692.265 64.3699 694.114L67.893 696.272L78.7116 702.802L63.1948 728.458L51.086 721.144L49.0507 719.894C45.5496 717.732 42.6477 715.876 39.941 714.05C11.007 694.541 0.216146 673.271 0.00322222 629.023L0 627.675H29.9802ZM287.61 279.527C286.222 280.003 284.921 280.555 283.735 281.181L93.2651 381.796C93.0652 381.901 92.8746 382.006 92.6932 382.109L92.5319 382.202L92.831 382.374L93.2651 382.609L283.735 483.224C284.921 483.85 286.222 484.402 287.61 484.878V279.527ZM317.59 279.527V484.878C318.979 484.402 320.28 483.85 321.466 483.224L511.935 382.609C512.135 382.504 512.326 382.399 512.507 382.296L512.669 382.202L512.37 382.031L511.935 381.796L321.466 281.181C320.28 280.555 318.979 280.003 317.59 279.527ZM514.66 168.807L343.795 259.066L514.66 349.325V168.807ZM90.939 169.018V349.114L261.405 259.066L90.939 169.018ZM321.466 34.9087C311.561 29.6764 293.64 29.6764 283.735 34.9087L93.2651 135.523C93.0652 135.629 92.8746 135.733 92.6932 135.837L92.5319 135.93L92.831 136.101L93.2651 136.337L283.735 236.951C293.64 242.184 311.561 242.184 321.466 236.951L511.935 136.337C512.135 136.231 512.326 136.127 512.507 136.024L512.669 135.93L512.37 135.759L511.935 135.523L321.466 34.9087ZM542.805 45.9421L554.914 53.2562L556.949 54.5059C560.45 56.6673 563.352 58.5243 566.059 60.3494C594.993 79.8588 605.784 101.129 605.997 145.377L606 146.725H576.02C576.02 127.347 573.768 114.612 569.297 105.639C565.592 98.2027 560.032 92.5195 549.88 85.6042L549.3 85.2114C547.072 83.7092 544.618 82.1352 541.63 80.2858L538.107 78.1277L527.288 71.5981L542.805 45.9421Z" fill="#1969FF"/>
</svg>
