<svg xmlns="http://www.w3.org/2000/svg" viewBox="0 0 69.6509 59.78109">
  <path d="M52.5594,18.263a4.47784,4.47784,0,0,0-4.3692,0l-10.0236,5.8138-6.8109,3.7916-10.0235,5.8138a4.47854,4.47854,0,0,1-4.3693,0l-7.9674-4.55A4.34686,4.34686,0,0,1,6.81088,25.467V16.49347A4.087,4.087,0,0,1,8.9955,12.82826l7.8389-4.42353a4.47844,4.47844,0,0,1,4.3693,0l7.8389,4.42353a4.34692,4.34692,0,0,1,2.1846,3.66521v5.81379l6.8109-3.9179v-5.8139a4.087,4.087,0,0,0-2.1846-3.66518L21.3322.56874a4.47844,4.47844,0,0,0-4.3693,0L2.18462,8.91028A4.087,4.087,0,0,0,0,12.57546V29.385a4.08689,4.08689,0,0,0,2.18462,3.6652L16.9629,41.39177a4.47854,4.47854,0,0,0,4.3693,0l10.0235-5.68741,6.8109-3.918L48.1902,26.099a4.47783,4.47783,0,0,1,4.3692,0l7.8389,4.4235a4.347,4.347,0,0,1,2.1847,3.6652v8.9735a4.087,4.087,0,0,1-2.1847,3.66521l-7.8389,4.55a4.47835,4.47835,0,0,1-4.3692,0l-7.839-4.4236a4.34715,4.34715,0,0,1-2.1846-3.66521V37.47377l-6.8109,3.918v5.8138a4.08707,4.08707,0,0,0,2.1847,3.6652l14.7783,8.34159a4.47835,4.47835,0,0,0,4.3692,0l14.7783-8.34159a4.347,4.347,0,0,0,2.1847-3.6652V30.39606a4.087,4.087,0,0,0-2.1847-3.66519Z" style="fill: #8247e5"/>
</svg>
