<?xml version="1.0" encoding="utf-8"?>
<!-- Generator: Adobe Illustrator 25.0.1, SVG Export Plug-In . SVG Version: 6.00 Build 0)  -->
<svg version="1.0" id="Layer_1" xmlns="http://www.w3.org/2000/svg" xmlns:xlink="http://www.w3.org/1999/xlink" x="0px" y="0px"
	 viewBox="0 0 122.7 87" style="enable-background:new 0 0 122.7 87;" xml:space="preserve">
<style type="text/css">
	.st0{clip-path:url(#SVGID_2_);}
	.st1{fill:url(#SVGID_3_);}
	.st2{fill:url(#SVGID_4_);}
	.st3{fill:url(#SVGID_5_);}
	.st4{fill:#0E0F23;}
	.st5{fill-rule:evenodd;clip-rule:evenodd;fill:#FFFFFF;}
	.st6{fill:#FFFFFF;}
</style>
<g>
	<g>
		<defs>
			<rect id="SVGID_1_" x="19.9" y="2" width="82.9" height="82.9"/>
		</defs>
		<clipPath id="SVGID_2_">
			<use xlink:href="#SVGID_1_"  style="overflow:visible;"/>
		</clipPath>
		<g class="st0">
			
				<linearGradient id="SVGID_3_" gradientUnits="userSpaceOnUse" x1="61.7913" y1="71.7404" x2="74.5306" y2="115.4857" gradientTransform="matrix(1 0 0 1 -12 -68)">
				<stop  offset="0" style="stop-color:#03B8FF"/>
				<stop  offset="1" style="stop-color:#FA52A0"/>
			</linearGradient>
			<path class="st1" d="M37.2,10l64.2,43.9L85.5,77.3L21.3,33.1L37.2,10z"/>
			
				<linearGradient id="SVGID_4_" gradientUnits="userSpaceOnUse" x1="72.2289" y1="68.7005" x2="84.9685" y2="112.446" gradientTransform="matrix(1 0 0 1 -12 -68)">
				<stop  offset="0" style="stop-color:#03B8FF"/>
				<stop  offset="1" style="stop-color:#FA52A0"/>
			</linearGradient>
			<path class="st2" d="M101.4,53.8c-5.5,7.9-24.2,4.8-41.8-7.6C41.7,34.2,32,17.9,37.2,10C42.7,2,61.4,5.1,79,17.6
				C96.9,29.3,106.6,45.9,101.4,53.8z"/>
			
				<linearGradient id="SVGID_5_" gradientUnits="userSpaceOnUse" x1="51.4769" y1="74.7438" x2="64.2166" y2="118.4896" gradientTransform="matrix(1 0 0 1 -12 -68)">
				<stop  offset="0" style="stop-color:#03B8FF"/>
				<stop  offset="1" style="stop-color:#FA52A0"/>
			</linearGradient>
			<path class="st3" d="M85.5,77c-5.5,7.9-24.2,4.8-41.8-7.6S16.1,41.1,21.6,32.8c5.5-7.9,24.2-4.8,41.8,7.6S90.7,69,85.5,77z"/>
			<path class="st4" d="M101.4,53.8L101.4,53.8L85.5,77.3l0,0c-5.5,7.9-24.2,4.5-41.8-7.6c-3.5-2.4-6.6-4.8-9.7-7.6
				c2.4-0.3,5.5-1.7,8.6-5.2c5.5-5.9,8.3-7.3,10.7-6.9c2.4,0,5.2,2.4,9.7,8.3s10.7,7.6,14.5,4.5c0.3-0.3,0.7-0.3,1-0.7
				c3.1-2.4,4.1-3.5,10-14.5c1.4-2.8,6.2-7.3,12.8-5.2C103.2,46.9,103.2,50.7,101.4,53.8z"/>
			<path class="st5" d="M99,52.5c-4.8,6.9-21.8,3.5-38-7.9C44.4,33.1,34.8,18.6,39.6,11.7s21.8-3.5,38,7.9S103.5,45.6,99,52.5z
				 M83.8,42.1c-2.4,3.5-10.7,1.7-19-3.8C56.9,32.8,52,25.5,54.5,22.1s10.7-1.7,19,3.8C81.4,31.4,86.2,38.6,83.8,42.1z"/>
			<path class="st6" d="M35.8,17.9c0-0.3-0.3-0.7-0.7-0.3c-0.3,0.3-0.7,0.3-0.7,0.7c0.3,1,0.7,1.7,0.7,2.4c0,0.3,0.3,0.7,0.7,0.3
				c0.3,0,0.7-0.3,0.3-0.7C36.2,19.7,36.2,19,35.8,17.9z"/>
			<path class="st6" d="M37.5,23.5c0-0.3-0.3-0.7-0.7-0.3c-0.3,0.3-0.3,0.3-0.3,0.7c3.8,8.6,11.7,18,22.1,24.9c0.3,0.3,0.7,0,1,0
				c0.3-0.3,0-0.7,0-1C48.9,40.7,41.3,31.7,37.5,23.5z"/>
			<path class="st6" d="M79.3,57.3c-0.3,0-0.7,0-0.7,0.3s0,0.7,0.3,0.7c1,0.3,2.4,0.7,3.5,1c0.3,0,0.7,0,0.7-0.3
				c0-0.3,0-0.7-0.3-0.7C81.7,58,80.4,57.6,79.3,57.3z"/>
			<path class="st6" d="M85.5,58.7c-0.3,0-0.7,0.3-0.7,0.7s0.3,0.7,0.7,0.7c2.8,0.3,5.9,0.7,8.3,0.3c0.3,0,0.7-0.3,0.7-0.7
				S94.2,59,93.8,59C91.1,59.4,88.3,59,85.5,58.7z"/>
		</g>
	</g>
</g>
</svg>
